<svg width="25" height="36" viewBox="0 0 25 36" fill="none" xmlns="http://www.w3.org/2000/svg">
<path d="M18.541 4.25H23.3743C23.6948 4.25 24.0022 4.43437 24.2288 4.76256C24.4554 5.09075 24.5827 5.53587 24.5827 6V34C24.5827 34.4641 24.4554 34.9092 24.2288 35.2374C24.0022 35.5656 23.6948 35.75 23.3743 35.75H1.62435C1.30388 35.75 0.996535 35.5656 0.769928 35.2374C0.543322 34.9092 0.416016 34.4641 0.416016 34V6C0.416016 5.53587 0.543322 5.09075 0.769928 4.76256C0.996535 4.43437 1.30388 4.25 1.62435 4.25H6.45768V0.75H8.87435V4.25H16.1243V0.75H18.541V4.25ZM22.166 18.25H2.83268V32.25H22.166V18.25ZM16.1243 7.75H8.87435V11.25H6.45768V7.75H2.83268V14.75H22.166V7.75H18.541V11.25H16.1243V7.75ZM5.24935 21.75H7.66602V25.25H5.24935V21.75ZM11.291 21.75H13.7077V25.25H11.291V21.75ZM17.3327 21.75H19.7493V25.25H17.3327V21.75Z" fill="#E3E9ED"/>
</svg>
