<svg width="30" height="30" viewBox="0 0 40 40" fill="none" xmlns="http://www.w3.org/2000/svg">
<path d="M30 4H38C38.5304 4 39.0391 4.21071 39.4142 4.58579C39.7893 4.96086 40 5.46957 40 6V38C40 38.5304 39.7893 39.0391 39.4142 39.4142C39.0391 39.7893 38.5304 40 38 40H2C1.46957 40 0.960859 39.7893 0.585786 39.4142C0.210714 39.0391 0 38.5304 0 38V6C0 5.46957 0.210714 4.96086 0.585786 4.58579C0.960859 4.21071 1.46957 4 2 4H10V0H14V4H26V0H30V4ZM36 20H4V36H36V20ZM26 8H14V12H10V8H4V16H36V8H30V12H26V8ZM8 24H12V28H8V24ZM18 24H22V28H18V24ZM28 24H32V28H28V24Z" fill="#D2E9E6"/>
</svg>
