<svg width="25" height="25" viewBox="0 0 25 25" fill="none" xmlns="http://www.w3.org/2000/svg">
<path d="M24.5417 0.875V18.9583C24.5414 20.0956 24.1659 21.2011 23.4734 22.1032C22.7809 23.0054 21.81 23.6538 20.7114 23.948C19.6128 24.2422 18.4478 24.1656 17.3971 23.7303C16.3465 23.2949 15.4688 22.525 14.9003 21.54C14.3317 20.555 14.1041 19.4099 14.2526 18.2824C14.4011 17.1548 14.9176 16.1077 15.7218 15.3036C16.5261 14.4994 17.5732 13.9831 18.7008 13.8347C19.8283 13.6863 20.9734 13.9141 21.9583 14.4827V4.75H10.3333V18.9583C10.3331 20.0956 9.95757 21.2011 9.26505 22.1032C8.57252 23.0054 7.60167 23.6538 6.50306 23.948C5.40446 24.2422 4.23948 24.1656 3.18881 23.7303C2.13813 23.2949 1.26046 22.525 0.691919 21.54C0.123375 20.555 -0.104278 19.4099 0.0442657 18.2824C0.192809 17.1548 0.709249 16.1077 1.51349 15.3036C2.31774 14.4994 3.36485 13.9831 4.49243 13.8347C5.62002 13.6863 6.76507 13.9141 7.75001 14.4827V0.875H24.5417Z" fill="white"/>
</svg>
