<svg width="468" height="80" viewBox="0 0 468 80" fill="none" xmlns="http://www.w3.org/2000/svg">
<rect width="468" height="80" fill="#E2E2E2"/>
<path d="M178.536 38.96H174.18C175.008 34.316 175.008 30.932 175.008 27.836V24.848H152.004V28.664H170.364C170.364 31.508 170.292 34.748 169.464 38.96H148.584V42.776H160.968V56.096H165.792V42.776H178.536V38.96ZM189.801 49.94H208.089V40.616H185.013V44.288H203.337V46.448H185.049V55.844H208.917V52.172H189.801V49.94ZM207.549 34.604C208.161 31.328 208.161 28.628 208.161 26.504V24.236H185.373V28.016H203.481C203.445 29.852 203.337 31.94 202.797 34.604H181.665V38.348H211.689V34.604H207.549ZM240.466 48.572V43.64H250.51V39.824H231.286V36.116H249.754V25.064H226.534V28.844H245.074V32.408H226.57V43.64H235.714V48.572H223.114V52.46H253.138V48.572H240.466ZM277.796 29.924C277.796 34.424 277.796 39.14 276.608 45.476L281.324 45.908C282.548 39.104 282.548 34.568 282.548 29.924V26H259.328V29.78H277.796V29.924ZM256.232 47.888V51.776H286.22V47.888H256.232ZM316.889 22.976H312.101V46.772H316.889V22.976ZM294.461 33.488C294.461 30.752 296.405 29.168 298.853 29.168C301.337 29.168 303.209 30.752 303.209 33.488C303.209 36.152 301.337 37.772 298.853 37.772C296.405 37.772 294.461 36.152 294.461 33.488ZM307.853 33.488C307.853 28.592 303.929 25.064 298.853 25.064C293.777 25.064 289.817 28.592 289.817 33.488C289.817 38.312 293.777 41.876 298.853 41.876C303.929 41.876 307.853 38.312 307.853 33.488ZM299.573 51.74V44.432H294.821V55.52H317.717V51.74H299.573Z" fill="black"/>
</svg>
